# Blender v2.77 (sub 0) OBJ File: 'LowPolyTree01.blend'
# www.blender.org
mtllib LowPolyTree.mtl
o Icosphere
v -1.425233 0.220251 1.432681
v -1.261384 0.220532 1.379442
v -1.261384 0.220532 1.207162
v -1.425233 0.220251 1.153923
v -1.526498 0.220077 1.293302
v -1.492684 0.207270 1.375226
v -1.336854 0.207537 1.425858
v -1.240546 0.207703 1.293302
v -1.336854 0.207538 1.160746
v -1.492684 0.207270 1.211378
v -1.513858 0.064510 1.391212
v -1.433219 0.065085 1.459878
v -1.327621 0.064830 1.451724
v -1.237399 0.065422 1.396250
v -1.212521 0.065028 1.293302
v -1.237399 0.065422 1.190354
v -1.327621 0.064830 1.134880
v -1.433219 0.065085 1.126727
v -1.513858 0.064510 1.195392
v -1.554244 0.064877 1.293302
v -1.410905 0.062881 1.391212
v -1.482042 0.062758 1.293302
v -1.379091 0.062105 1.293302
v -1.295805 0.063079 1.353813
v -1.295805 0.063079 1.232791
v -1.410905 0.062881 1.195392
v -1.459504 0.483122 1.350775
v -1.412184 0.492228 1.391082
v -1.350183 0.483309 1.386296
v -1.297238 0.492426 1.353733
v -1.282619 0.483426 1.293302
v -1.297238 0.492426 1.232872
v -1.350183 0.483309 1.200309
v -1.412184 0.492228 1.195523
v -1.459504 0.483122 1.235829
v -1.483225 0.492107 1.293302
v -1.720847 0.493695 1.540638
v -1.517207 0.532885 1.714097
v -1.250384 0.494503 1.693500
v -1.022535 0.533736 1.553365
v -0.959625 0.495004 1.293302
v -1.022535 0.533736 1.033239
v -1.250384 0.494503 0.893105
v -1.517207 0.532886 0.872508
v -1.720847 0.493695 1.045966
v -1.822934 0.532362 1.293302
v -1.438971 0.899913 1.335415
v -1.404298 0.906585 1.364949
v -1.358867 0.900050 1.361442
v -1.320073 0.906730 1.337582
v -1.309361 0.900136 1.293302
v -1.320073 0.906730 1.249023
v -1.358867 0.900050 1.225163
v -1.404298 0.906585 1.221656
v -1.438971 0.899913 1.251190
v -1.456352 0.906496 1.293302
v -1.439092 0.908167 1.335415
v -1.404419 0.914840 1.364949
v -1.358988 0.908305 1.361442
v -1.320194 0.914985 1.337582
v -1.309482 0.908390 1.293302
v -1.320194 0.914985 1.249023
v -1.358988 0.908305 1.225163
v -1.404419 0.914840 1.221656
v -1.439092 0.908167 1.251190
v -1.456473 0.914751 1.293302
v -1.687292 0.919933 1.515740
v -1.504150 0.955178 1.671738
v -1.264187 0.920659 1.653214
v -1.059275 0.955943 1.527186
v -1.002697 0.921110 1.293302
v -1.059275 0.955943 1.059419
v -1.264187 0.920660 0.933391
v -1.504150 0.955178 0.914867
v -1.687292 0.919933 1.070864
v -1.779102 0.954707 1.293302
v -1.441459 1.579445 1.336311
v -1.406049 1.586260 1.366473
v -1.359652 1.579586 1.362891
v -1.320032 1.586408 1.338524
v -1.309093 1.579673 1.293303
v -1.320032 1.586408 1.248081
v -1.359652 1.579586 1.223714
v -1.406049 1.586260 1.220132
v -1.441459 1.579445 1.250294
v -1.459210 1.586169 1.293303
v -1.567078 1.621756 1.427525
v -1.456568 1.643024 1.521656
v -1.311770 1.622195 1.510479
v -1.188123 1.643485 1.434432
v -1.153983 1.622466 1.293303
v -1.188123 1.643485 1.152174
v -1.311770 1.622195 1.076126
v -1.456568 1.643024 1.064949
v -1.567078 1.621756 1.159080
v -1.622478 1.642740 1.293303
v -1.412985 2.048294 1.315038
v -1.395089 2.051738 1.330282
v -1.371641 2.048365 1.328472
v -1.351618 2.051813 1.316157
v -1.346089 2.048409 1.293303
v -1.351618 2.051813 1.270449
v -1.371641 2.048365 1.258134
v -1.395089 2.051738 1.256324
v -1.412985 2.048294 1.271567
v -1.421956 2.051692 1.293303
v -1.404896 1.566144 1.223440
v -1.360596 1.559772 1.226860
v -1.404896 1.566144 1.363165
v -1.438705 1.559637 1.334366
v -1.312323 1.559855 1.293303
v -1.322768 1.566285 1.336480
v -1.455654 1.566057 1.293303
v -1.438705 1.559637 1.252239
v -1.360596 1.559772 1.359745
v -1.322768 1.566285 1.250126
vt 0.0006 0.8709
vt 0.0006 0.7741
vt 0.1856 0.8045
vt 0.1856 0.8210
vt 0.4499 0.7385
vt 0.4499 0.8353
vt 0.2648 0.7853
vt 0.2648 0.7689
vt 0.7935 0.3718
vt 0.6967 0.3718
vt 0.7466 0.1868
vt 0.7630 0.1868
vt 0.1179 0.4342
vt 0.0006 0.4282
vt 0.1020 0.1797
vt 0.1269 0.1815
vt 0.7935 0.1856
vt 0.6967 0.1856
vt 0.7270 0.0006
vt 0.7435 0.0006
vt 0.7935 0.5580
vt 0.6967 0.5580
vt 0.7466 0.3730
vt 0.7631 0.3730
vt 0.5288 0.6826
vt 0.4320 0.6826
vt 0.4624 0.4975
vt 0.4789 0.4975
vt 0.6085 0.8428
vt 0.6085 0.7460
vt 0.7935 0.7763
vt 0.7935 0.7928
vt 0.2354 0.4364
vt 0.1518 0.1815
vt 0.1856 0.6762
vt 0.1856 0.7730
vt 0.0006 0.7231
vt 0.0006 0.7066
vt 0.9610 0.5395
vt 0.9085 0.5395
vt 0.9147 0.3765
vt 0.9232 0.3765
vt 0.5069 0.7105
vt 0.4984 0.7105
vt 0.4924 0.7045
vt 0.4898 0.6964
vt 0.4937 0.6888
vt 0.5005 0.6837
vt 0.5089 0.6854
vt 0.5158 0.6903
vt 0.5171 0.6987
vt 0.5146 0.7069
vt 0.9610 0.1635
vt 0.9085 0.1635
vt 0.9147 0.0006
vt 0.9232 0.0006
vt 0.3971 0.1565
vt 0.3479 0.1582
vt 0.3479 0.0024
vt 0.3561 0.0006
vt 0.9610 0.3753
vt 0.9085 0.3753
vt 0.9464 0.2124
vt 0.9549 0.2124
vt 0.9657 0.8201
vt 0.9132 0.8201
vt 0.9193 0.6571
vt 0.9278 0.6571
vt 0.4056 0.6530
vt 0.3531 0.6530
vt 0.3909 0.4900
vt 0.3994 0.4900
vt 0.2393 0.8391
vt 0.1868 0.8391
vt 0.2247 0.6762
vt 0.2332 0.6762
vt 0.2986 0.1565
vt 0.3397 0.0006
vt 0.5825 0.6605
vt 0.5300 0.6605
vt 0.5361 0.4975
vt 0.5447 0.4975
vt 0.4256 0.9994
vt 0.3731 0.9994
vt 0.4109 0.8365
vt 0.4194 0.8365
vt 0.6955 0.2479
vt 0.6085 0.2479
vt 0.6670 0.0006
vt 0.6831 0.0006
vt 0.6073 0.4963
vt 0.5202 0.4963
vt 0.5788 0.2491
vt 0.5949 0.2491
vt 0.6955 0.7448
vt 0.6085 0.7448
vt 0.6209 0.4975
vt 0.6369 0.4975
vt 0.5191 0.4964
vt 0.4320 0.4964
vt 0.4906 0.2491
vt 0.5066 0.2491
vt 0.4308 0.4702
vt 0.3478 0.4889
vt 0.3479 0.2224
vt 0.3651 0.2212
vt 0.6955 0.4963
vt 0.6085 0.4963
vt 0.6209 0.2491
vt 0.6369 0.2491
vt 0.5191 0.2479
vt 0.4320 0.2479
vt 0.4444 0.0006
vt 0.4605 0.0006
vt 0.3519 0.7373
vt 0.2648 0.7373
vt 0.3234 0.4900
vt 0.3395 0.4900
vt 0.6073 0.2479
vt 0.5202 0.2479
vt 0.5326 0.0006
vt 0.5487 0.0006
vt 0.2648 0.4702
vt 0.3307 0.2212
vt 0.1008 0.6061
vt 0.1120 0.6016
vt 0.1115 0.6156
vt 0.1081 0.6170
vt 0.1230 0.6069
vt 0.1149 0.6172
vt 0.1292 0.6282
vt 0.1228 0.6386
vt 0.1148 0.6269
vt 0.1167 0.6237
vt 0.1107 0.6408
vt 0.1111 0.6275
vt 0.1308 0.6162
vt 0.1172 0.6201
vt 0.0988 0.6378
vt 0.1075 0.6266
vt 0.0931 0.6270
vt 0.1058 0.6234
vt 0.0923 0.6148
vt 0.1056 0.6197
vt 0.1442 0.5804
vt 0.1661 0.6065
vt 0.0578 0.6027
vt 0.0814 0.5782
vt 0.1432 0.6692
vt 0.1095 0.6750
vt 0.1132 0.5690
vt 0.0764 0.6669
vt 0.1612 0.6402
vt 0.0603 0.6367
vt 0.4277 0.5503
vt 0.4277 0.5338
vt 0.4306 0.5342
vt 0.4306 0.5507
vt 0.4232 0.5534
vt 0.4068 0.5534
vt 0.4072 0.5505
vt 0.4237 0.5505
vt 0.1016 0.1758
vt 0.1270 0.1768
vt 0.4255 0.5069
vt 0.4255 0.4904
vt 0.4285 0.4900
vt 0.4285 0.5065
vt 0.4072 0.5628
vt 0.4237 0.5628
vt 0.4232 0.5657
vt 0.4068 0.5657
vt 0.4237 0.5575
vt 0.4072 0.5575
vt 0.4068 0.5546
vt 0.4232 0.5546
vt 0.4236 0.5739
vt 0.4072 0.5739
vt 0.4068 0.5710
vt 0.4232 0.5710
vt 0.1524 0.1776
vt 0.4232 0.5616
vt 0.4068 0.5616
vt 0.4072 0.5587
vt 0.4237 0.5587
vt 0.4068 0.5669
vt 0.4232 0.5669
vt 0.4237 0.5698
vt 0.4072 0.5698
vt 0.3293 0.2143
vt 0.3479 0.2140
vt 0.4151 0.5326
vt 0.4151 0.5165
vt 0.4222 0.5150
vt 0.4222 0.5319
vt 0.4139 0.5166
vt 0.4139 0.5326
vt 0.4068 0.5319
vt 0.4068 0.5150
vt 0.4243 0.5139
vt 0.4083 0.5139
vt 0.4068 0.5067
vt 0.4236 0.5067
vt 0.4243 0.5493
vt 0.4083 0.5493
vt 0.4068 0.5421
vt 0.4236 0.5421
vt 0.3664 0.2143
vt 0.4228 0.5055
vt 0.4068 0.5055
vt 0.4075 0.4984
vt 0.4243 0.4984
vt 0.4068 0.5338
vt 0.4228 0.5338
vt 0.4243 0.5410
vt 0.4075 0.5410
vt 0.4234 0.5311
vt 0.4234 0.5150
vt 0.4306 0.5158
vt 0.4306 0.5326
vt 0.4228 0.4972
vt 0.4068 0.4972
vt 0.4075 0.4900
vt 0.4244 0.4900
vt 0.7946 0.7948
vt 0.7946 0.7723
vt 0.9073 0.7460
vt 0.9073 0.8428
vt 0.9232 0.5855
vt 0.9232 0.6080
vt 0.8105 0.6559
vt 0.8105 0.5592
vt 0.4510 0.7873
vt 0.4510 0.7648
vt 0.5637 0.7385
vt 0.5637 0.8353
vt 0.8426 0.0986
vt 0.8651 0.0986
vt 0.8914 0.2112
vt 0.7947 0.2112
vt 0.8094 0.5855
vt 0.8094 0.6080
vt 0.6967 0.6559
vt 0.6967 0.5592
vt 0.9073 0.2604
vt 0.9073 0.2829
vt 0.7947 0.3092
vt 0.7947 0.2124
vt 0.7947 0.0711
vt 0.7947 0.0486
vt 0.9073 0.0006
vt 0.9073 0.0974
vt 0.9073 0.3993
vt 0.9073 0.4218
vt 0.7946 0.4698
vt 0.7946 0.3730
vt 0.5223 0.8365
vt 0.5388 0.8365
vt 0.5637 0.9435
vt 0.4767 0.9435
vt 0.0006 0.0262
vt 0.1332 0.0006
vt 0.7155 0.8688
vt 0.7155 0.8853
vt 0.6085 0.9310
vt 0.6085 0.8439
vt 0.9120 0.7028
vt 0.9120 0.7193
vt 0.8049 0.7442
vt 0.8049 0.6571
vt 0.0006 0.9342
vt 0.0006 0.9178
vt 0.1076 0.8721
vt 0.1076 0.9592
vt 0.3719 0.8614
vt 0.3719 0.8778
vt 0.2648 0.9235
vt 0.2648 0.8365
vt 0.2637 0.0354
vt 0.8249 0.8853
vt 0.8249 0.8689
vt 0.9320 0.8439
vt 0.9320 0.9310
vt 0.8037 0.6820
vt 0.8037 0.6985
vt 0.6967 0.7442
vt 0.6967 0.6571
vt 0.7167 0.8853
vt 0.7167 0.8688
vt 0.8237 0.8439
vt 0.8237 0.9310
vt 0.3949 0.7108
vt 0.3780 0.7108
vt 0.3531 0.6542
vt 0.4056 0.6542
vt 0.9049 0.3402
vt 0.9049 0.3570
vt 0.8484 0.3677
vt 0.8484 0.3152
vt 0.4320 0.7255
vt 0.4320 0.7087
vt 0.4886 0.6837
vt 0.4886 0.7363
vt 0.2434 0.8510
vt 0.2434 0.8679
vt 0.1868 0.8928
vt 0.1868 0.8403
vt 0.8222 0.5275
vt 0.8054 0.5275
vt 0.7946 0.4710
vt 0.8472 0.4710
vt 0.9049 0.4817
vt 0.9049 0.4985
vt 0.8484 0.5235
vt 0.8484 0.4710
vt 0.5575 0.7182
vt 0.5407 0.7182
vt 0.5300 0.6617
vt 0.5825 0.6617
vt 0.8196 0.3152
vt 0.8364 0.3152
vt 0.8472 0.3718
vt 0.7946 0.3718
vt 0.1114 0.6182
vt 0.1080 0.6206
vt 0.1091 0.6246
vt 0.1133 0.6247
vt 0.1147 0.6208
vt 0.1113 0.6218
vn 0.7542 0.6511 -0.0855
vn -0.5618 0.6490 -0.5130
vn 0.1510 0.6501 0.7447
vn 0.1510 0.6501 -0.7447
vn -0.5618 0.6490 0.5130
vn 0.7542 0.6511 0.0855
vn -0.6622 0.6489 -0.3748
vn 0.3135 0.6504 0.6919
vn 0.3135 0.6504 -0.6919
vn -0.6622 0.6489 0.3748
vn -0.8220 0.4031 -0.4023
vn -0.0017 1.0000 -0.0000
vn 0.4273 0.4052 0.8082
vn 0.4273 0.4052 -0.8082
vn -0.8220 0.4031 0.4023
vn 0.9002 0.4060 -0.1573
vn -0.6371 0.4034 -0.6568
vn 0.1281 0.4047 0.9054
vn 0.1281 0.4047 -0.9054
vn -0.6371 0.4034 0.6568
vn 0.9002 0.4060 0.1573
vn 0.1308 0.4299 0.8933
vn -0.6322 0.4287 -0.6454
vn 0.8895 0.4312 -0.1510
vn -0.8097 0.4284 0.4012
vn 0.4179 0.4304 -0.8000
vn 0.4179 0.4304 0.8000
vn -0.8097 0.4284 -0.4012
vn 0.8895 0.4312 0.1510
vn -0.6322 0.4287 0.6454
vn 0.1308 0.4299 -0.8933
vn 0.0874 0.1751 0.9807
vn -0.6478 0.1710 0.7423
vn -0.6478 0.1710 -0.7423
vn 0.0874 0.1751 -0.9807
vn -0.9066 0.1696 0.3865
vn 0.5049 0.1774 -0.8447
vn 0.9589 0.1799 -0.2193
vn 0.9589 0.1799 0.2193
vn 0.5049 0.1774 0.8447
vn -0.9066 0.1696 -0.3865
vn 0.9661 0.1474 -0.2118
vn -0.6576 0.1446 -0.7393
vn 0.0970 0.1459 0.9845
vn 0.0970 0.1459 -0.9845
vn -0.6576 0.1446 0.7393
vn 0.9661 0.1474 0.2118
vn -0.9065 0.1442 -0.3967
vn 0.4998 0.1466 0.8537
vn 0.4998 0.1466 -0.8537
vn -0.9065 0.1442 0.3967
vn -0.6473 -0.0095 -0.7621
vn 0.0771 0.0011 0.9970
vn 0.0771 0.0011 -0.9970
vn -0.6473 -0.0095 0.7621
vn 0.9723 0.0143 0.2331
vn -0.9250 -0.0136 -0.3797
vn 0.5229 0.0077 0.8524
vn 0.5229 0.0077 -0.8524
vn -0.9250 -0.0136 0.3797
vn 0.9724 0.0143 -0.2331
vn 0.0532 -0.1591 -0.9858
vn -0.6217 -0.1617 0.7664
vn 0.9546 -0.1556 0.2541
vn -0.9207 -0.1628 -0.3546
vn 0.5369 -0.1572 0.8289
vn 0.5369 -0.1572 -0.8289
vn -0.9207 -0.1628 0.3546
vn 0.9546 -0.1556 -0.2541
vn -0.6217 -0.1617 -0.7664
vn 0.0532 -0.1591 0.9858
vn -0.1170 -0.9874 -0.1061
vn 0.0354 -0.9872 -0.1556
vn 0.0659 -0.9871 -0.1457
vn -0.1359 -0.9875 0.0801
vn -0.1359 -0.9875 -0.0801
vn 0.0659 -0.9871 0.1457
vn 0.0354 -0.9872 0.1556
vn -0.1170 -0.9874 0.1061
vn 0.1601 -0.9870 -0.0160
vn 0.1601 -0.9870 0.0160
vn -0.1354 -0.9871 0.0858
vn -0.1354 -0.9871 -0.0858
vn 0.0622 -0.9867 0.1500
vn 0.0409 -0.9868 0.1569
vn -0.1222 -0.9871 0.1039
vn 0.1630 -0.9866 -0.0112
vn 0.1630 -0.9866 0.0112
vn -0.1222 -0.9871 -0.1039
vn 0.0409 -0.9868 -0.1569
vn 0.0622 -0.9867 -0.1500
vn -0.0881 -0.9444 0.3168
vn 0.2604 -0.9438 0.2036
vn -0.3274 -0.9448 0.0126
vn 0.2752 -0.9438 0.1832
vn 0.2752 -0.9438 -0.1832
vn -0.3274 -0.9448 -0.0126
vn 0.2604 -0.9438 -0.2036
vn -0.0881 -0.9444 -0.3168
vn -0.1120 -0.9444 0.3090
vn -0.1120 -0.9444 -0.3090
vn -0.0158 -0.9995 0.0269
vn 0.0219 -0.9994 0.0250
vn 0.0317 -0.9994 -0.0115
vn 0.0001 -0.9995 -0.0321
vn -0.0293 -0.9995 -0.0084
vn -0.0063 -1.0000 -0.0059
vn -0.0158 -0.9998 -0.0127
vn -0.0158 -0.9995 -0.0269
vn 0.0048 -0.9999 -0.0095
vn 0.0084 -0.9998 -0.0206
vn 0.0219 -0.9994 -0.0250
vn 0.0117 -0.9999 -0.0000
vn 0.0234 -0.9997 -0.0000
vn 0.0317 -0.9994 0.0115
vn 0.0048 -0.9999 0.0095
vn 0.0084 -0.9998 0.0206
vn 0.0001 -0.9995 0.0321
vn -0.0063 -1.0000 0.0059
vn -0.0158 -0.9998 0.0127
vn -0.0293 -0.9995 0.0083
usemtl PLANT
s off
f 41/1/1 42/2/1 52/3/1 51/4/1
f 44/5/2 45/6/2 55/7/2 54/8/2
f 38/9/3 39/10/3 49/11/3 48/12/3
f 43/13/4 44/14/4 54/15/4 53/16/4
f 37/17/5 38/18/5 48/19/5 47/20/5
f 40/21/6 41/22/6 51/23/6 50/24/6
f 45/25/7 46/26/7 56/27/7 55/28/7
f 39/29/8 40/30/8 50/31/8 49/32/8
f 42/33/9 43/13/9 53/16/9 52/34/9
f 46/35/10 37/36/10 47/37/10 56/38/10
f 95/39/11 96/40/11 106/41/11 105/42/11
f 97/43/12 98/44/12 99/45/12 100/46/12 101/47/12 102/48/12 103/49/12 104/50/12 105/51/12 106/52/12
f 89/53/13 90/54/13 100/55/13 99/56/13
f 92/57/14 93/58/14 103/59/14 102/60/14
f 96/61/15 87/62/15 97/63/15 106/64/15
f 91/65/16 92/66/16 102/67/16 101/68/16
f 94/69/17 95/70/17 105/71/17 104/72/17
f 88/73/18 89/74/18 99/75/18 98/76/18
f 93/58/19 94/77/19 104/78/19 103/59/19
f 87/79/20 88/80/20 98/81/20 97/82/20
f 90/83/21 91/84/21 101/85/21 100/86/21
f 68/87/22 69/88/22 115/89/22 109/90/22
f 74/91/23 75/92/23 114/93/23 107/94/23
f 71/95/24 72/96/24 116/97/24 111/98/24
f 76/99/25 67/100/25 110/101/25 113/102/25
f 72/103/26 73/104/26 108/105/26 116/106/26
f 69/107/27 70/108/27 112/109/27 115/110/27
f 75/111/28 76/112/28 113/113/28 114/114/28
f 70/115/29 71/116/29 111/117/29 112/118/29
f 67/119/30 68/120/30 109/121/30 110/122/30
f 73/104/31 74/123/31 107/124/31 108/105/31
usemtl WOOD
f 7/125/32 1/126/32 12/127/32 13/128/32
f 1/126/33 6/129/33 11/130/33 12/127/33
f 10/131/34 4/132/34 18/133/34 19/134/34
f 4/132/35 9/135/35 17/136/35 18/133/35
f 6/129/36 5/137/36 20/138/36 11/130/36
f 9/135/37 3/139/37 16/140/37 17/136/37
f 3/139/38 8/141/38 15/142/38 16/140/38
f 8/141/39 2/143/39 14/144/39 15/142/39
f 2/143/40 7/125/40 13/128/40 14/144/40
f 5/137/41 10/131/41 19/134/41 20/138/41
f 8/141/42 3/139/42 32/145/42 31/146/42
f 4/132/43 10/131/43 35/147/43 34/148/43
f 1/126/44 7/125/44 29/149/44 28/150/44
f 9/135/45 4/132/45 34/148/45 33/151/45
f 6/129/46 1/126/46 28/150/46 27/152/46
f 2/143/47 8/141/47 31/146/47 30/153/47
f 10/131/48 5/137/48 36/154/48 35/147/48
f 7/125/49 2/143/49 30/153/49 29/149/49
f 3/139/50 9/135/50 33/151/50 32/145/50
f 5/137/51 6/129/51 27/152/51 36/154/51
f 54/155/52 55/156/52 65/157/52 64/158/52
f 48/159/53 49/160/53 59/161/53 58/162/53
f 53/16/54 54/15/54 64/163/54 63/164/54
f 47/165/55 48/166/55 58/167/55 57/168/55
f 50/169/56 51/170/56 61/171/56 60/172/56
f 55/173/57 56/174/57 66/175/57 65/176/57
f 49/177/58 50/178/58 60/179/58 59/180/58
f 52/34/59 53/16/59 63/164/59 62/181/59
f 56/182/60 47/183/60 57/184/60 66/185/60
f 51/186/61 52/187/61 62/188/61 61/189/61
f 108/105/62 107/124/62 84/190/62 83/191/62
f 110/192/63 109/193/63 78/194/63 77/195/63
f 112/196/64 111/197/64 81/198/64 80/199/64
f 114/200/65 113/201/65 86/202/65 85/203/65
f 115/204/66 112/205/66 80/206/66 79/207/66
f 116/106/67 108/105/67 83/191/67 82/208/67
f 113/209/68 110/210/68 77/211/68 86/212/68
f 111/213/69 116/214/69 82/215/69 81/216/69
f 107/217/70 114/218/70 85/219/70 84/220/70
f 109/221/71 115/222/71 79/223/71 78/224/71
usemtl PLANTDARC
f 36/225/72 27/226/72 37/227/72 46/228/72
f 31/229/73 32/230/73 42/231/73 41/232/73
f 34/233/74 35/234/74 45/235/74 44/236/74
f 28/237/75 29/238/75 39/239/75 38/240/75
f 33/151/76 34/148/76 44/14/76 43/13/76
f 27/241/77 28/242/77 38/243/77 37/244/77
f 30/245/78 31/246/78 41/247/78 40/248/78
f 35/249/79 36/250/79 46/251/79 45/252/79
f 29/253/80 30/254/80 40/255/80 39/256/80
f 32/145/81 33/151/81 43/13/81 42/33/81
f 58/257/82 59/258/82 69/259/82 68/260/82
f 63/164/83 64/163/83 74/261/83 73/262/83
f 57/263/84 58/264/84 68/265/84 67/266/84
f 60/267/85 61/268/85 71/269/85 70/270/85
f 65/271/86 66/272/86 76/273/86 75/274/86
f 59/275/87 60/276/87 70/277/87 69/278/87
f 62/181/88 63/164/88 73/262/88 72/279/88
f 66/280/89 57/281/89 67/282/89 76/283/89
f 61/284/90 62/285/90 72/286/90 71/287/90
f 64/288/91 65/289/91 75/290/91 74/291/91
f 77/292/92 78/293/92 88/294/92 87/295/92
f 80/296/93 81/297/93 91/298/93 90/299/93
f 85/300/94 86/301/94 96/302/94 95/303/94
f 79/304/95 80/305/95 90/306/95 89/307/95
f 82/208/96 83/191/96 93/58/96 92/57/96
f 86/308/97 77/309/97 87/310/97 96/311/97
f 81/312/98 82/313/98 92/314/98 91/315/98
f 84/316/99 85/317/99 95/318/99 94/319/99
f 78/320/100 79/321/100 89/322/100 88/323/100
f 83/191/101 84/190/101 94/77/101 93/58/101
usemtl WOODDARC
f 12/127/102 11/130/102 21/324/102
f 14/144/103 13/128/103 24/325/103
f 16/140/104 15/142/104 25/326/104
f 18/133/105 17/136/105 26/327/105
f 20/138/106 19/134/106 22/328/106
f 22/328/107 26/327/107 23/329/107
f 22/328/108 19/134/108 26/327/108
f 19/134/109 18/133/109 26/327/109
f 26/327/110 25/326/110 23/329/110
f 26/327/111 17/136/111 25/326/111
f 17/136/112 16/140/112 25/326/112
f 25/326/113 24/325/113 23/329/113
f 25/326/114 15/142/114 24/325/114
f 15/142/115 14/144/115 24/325/115
f 24/325/116 21/324/116 23/329/116
f 24/325/117 13/128/117 21/324/117
f 13/128/118 12/127/118 21/324/118
f 21/324/119 22/328/119 23/329/119
f 21/324/120 11/130/120 22/328/120
f 11/130/121 20/138/121 22/328/121
